<svg width="417" height="78" viewBox="0 0 417 78" fill="none" xmlns="http://www.w3.org/2000/svg">
<mask id="mask0_3237_1304" style="mask-type:alpha" maskUnits="userSpaceOnUse" x="0" y="0" width="417" height="78">
<rect width="417" height="78" fill="#D9D9D9"/>
</mask>
<g mask="url(#mask0_3237_1304)">
<path d="M34.5087 10.778H19.5176V74.616H34.5087V10.778Z" fill="#F7921E"/>
<path d="M51.0261 10.778H3V24.5199H51.0261V10.778Z" fill="#FF5E40"/>
<path d="M34.5083 10.778H19.5172V24.5199H34.5083V10.778Z" fill="#FB843A"/>
<path d="M75.4969 10.7811H60.5057V74.619H75.4969V10.7811Z" fill="#FF5E40"/>
<path d="M108.043 32.4174C108.043 20.4854 98.3354 10.778 86.4027 10.778H60.5057V24.5199H86.4027C90.7581 24.5199 94.3009 28.0627 94.3009 32.4175C94.3009 36.7728 90.7581 40.3156 86.4027 40.3156H60.5057V54.0575H86.402C90.7573 54.0575 94.3001 57.6003 94.3001 61.9557V74.6191H108.042V61.9557C108.042 56.2445 105.802 51.0583 102.175 47.1869C105.802 43.3155 108.043 38.1289 108.043 32.4174Z" fill="#F7921E"/>
<path d="M75.4969 10.7811H60.5057V24.5199H75.4969V10.7811Z" fill="#FB843A"/>
<path d="M75.4969 40.3156H60.5057V54.0575H75.4969V40.3156Z" fill="#FB843A"/>
<path d="M218.945 74.616H203.954L181.467 10.778H196.458L218.945 74.616Z" fill="#F7921E"/>
<path d="M203.954 74.616H218.945L241.432 10.778H226.441L203.954 74.616Z" fill="#FF5E40"/>
<path d="M203.954 74.616H218.945L211.449 53.3367L203.954 74.616Z" fill="#FB843A"/>
<path d="M265.479 10.7781H250.488V74.616H265.479V10.7781Z" fill="#FB843A"/>
<path d="M287.407 36.9345H250.488V50.6763H287.407V36.9345Z" fill="#F7921E"/>
<path d="M292.404 10.778H250.488V24.5199H292.404V10.778Z" fill="#F7921E"/>
<path d="M294.903 60.8742H250.488V74.616H294.903V60.8742Z" fill="#F7921E"/>
<path d="M265.479 36.9345H250.488V50.6763H265.479V36.9345Z" fill="#FF5E40"/>
<path d="M265.479 10.7781H250.488V24.5199H265.479V10.7781Z" fill="#FF5E40"/>
<path d="M265.479 60.8742H250.488V74.616H265.479V60.8742Z" fill="#FF5E40"/>
<path d="M321.339 10.778H306.348V74.616H321.339V10.778Z" fill="#F7921E"/>
<path d="M348.264 60.8741H306.348V74.6159H348.264V60.8741Z" fill="#FF5E40"/>
<path d="M321.339 60.8741H306.348V74.6159H321.339V60.8741Z" fill="#FB843A"/>
<path d="M398.009 74.616H413L390.513 10.778H375.522L398.009 74.616Z" fill="#FF5E40"/>
<path d="M368.027 74.616H353.036L375.522 10.778H390.513L368.027 74.616Z" fill="#F7921E"/>
<path d="M390.513 10.778H375.522L383.018 32.0573L390.513 10.778Z" fill="#FB843A"/>
<path d="M117.183 65.4416C130.6 66.9385 144.057 62.2426 157.402 65.0125C156.619 64.8502 156.14 63.1552 155.334 62.988C141.989 60.2178 129.074 64.9133 115.657 63.4168C116.398 63.4996 116.415 65.3562 117.183 65.4416Z" fill="#FF5E40"/>
<path d="M147.042 13.6433C143.585 27.3807 129.355 49.2249 115.018 63.9457C115.206 66.1194 118.181 65.8008 119.047 64.9114C133.386 50.1905 152.594 13.8672 151.305 12.619C150.016 11.3708 147.773 12.7375 147.042 13.6433Z" fill="#FF5E40"/>
<path d="M183.749 62.3097C174.309 44.3081 159.054 31.5226 151.242 12.5158C151.701 13.631 147.354 15.0993 147.826 16.2473C155.638 35.2548 173.555 48.6276 182.995 66.6284C182.473 65.6334 184.29 63.3402 183.749 62.3097Z" fill="#FF5E40"/>
<path d="M150.424 70.1455C153.16 68.3481 155.897 66.5499 158.633 64.7524C158.51 64.833 156.865 62.8669 156.565 62.7279C153.878 61.4815 151.192 60.235 148.505 58.9889C149.323 59.3684 149.742 60.6284 150.573 61.0133C153.26 62.2598 155.946 63.5063 158.633 64.7524C157.944 64.0776 157.254 63.4024 156.565 62.7279C153.828 64.525 151.092 66.3232 148.356 68.121C148.509 68.0194 150.234 70.2704 150.424 70.1455Z" fill="#FF5E40"/>
</g>
</svg>
